<svg width="847" height="206" viewBox="0 0 847 206" fill="none" xmlns="http://www.w3.org/2000/svg">
<mask id="mask0_35_508" style="mask-type:alpha" maskUnits="userSpaceOnUse" x="-1" y="-2" width="205" height="204">
<rect x="-0.5" y="-1.5" width="204" height="203" rx="15.5" fill="#D9D9D9" stroke="#ECEDED"/>
</mask>
<g mask="url(#mask0_35_508)">
<g opacity="0.28">
<path fill-rule="evenodd" clip-rule="evenodd" d="M103.733 52.8254C105.543 52.8254 106.991 54.3009 106.991 56.0827V144.558C106.991 146.367 105.515 147.815 103.733 147.815C101.924 147.815 100.476 146.339 100.476 144.558V56.1105C100.476 54.3009 101.952 52.8532 103.733 52.8532V52.8254Z" fill="white" stroke="#231F20" stroke-miterlimit="10"/>
<path d="M103.733 148.539C101.534 148.539 99.7522 146.757 99.7522 144.558V56.1105C99.7522 53.9112 101.534 52.1294 103.733 52.1294C105.933 52.1294 107.714 53.9112 107.714 56.1105V144.586C107.714 146.785 105.933 148.567 103.733 148.567V148.539ZM103.733 53.5214C102.313 53.5214 101.172 54.6628 101.172 56.0827V144.558C101.172 145.977 102.313 147.119 103.733 147.119C105.153 147.119 106.295 145.977 106.295 144.558V56.1105C106.295 54.6907 105.153 53.5492 103.733 53.5492V53.5214Z" fill="#070707" stroke="#231F20" stroke-miterlimit="10"/>
<path fill-rule="evenodd" clip-rule="evenodd" d="M151.256 100.348C151.256 102.158 149.78 103.633 147.999 103.633H59.4958C57.6862 103.633 56.2385 102.158 56.2385 100.348C56.2385 98.5384 57.714 97.0907 59.4958 97.0907H147.971C149.78 97.0907 151.228 98.5663 151.228 100.348H151.256Z" fill="white" stroke="#231F20" stroke-miterlimit="10"/>
<path d="M147.971 104.329H59.4958C57.2964 104.329 55.5147 102.547 55.5147 100.348C55.5147 98.1487 57.2964 96.3669 59.4958 96.3669H147.971C150.17 96.3669 151.952 98.1487 151.952 100.348C151.952 102.547 150.17 104.329 147.971 104.329ZM59.4958 97.7867C58.076 97.7867 56.9345 98.9282 56.9345 100.348C56.9345 101.768 58.076 102.909 59.4958 102.909H147.971C149.391 102.909 150.532 101.768 150.532 100.348C150.532 98.9282 149.391 97.7867 147.971 97.7867H59.4958Z" fill="#070707" stroke="#231F20" stroke-miterlimit="10"/>
<path fill-rule="evenodd" clip-rule="evenodd" d="M103.733 141.662C126.506 141.662 145.075 123.093 145.075 100.32C145.075 77.5472 126.506 58.978 103.733 58.978C80.9603 58.978 62.3911 77.5472 62.3911 100.32C62.3911 123.093 80.9603 141.662 103.733 141.662Z" fill="white" stroke="#231F20" stroke-miterlimit="10"/>
<path d="M103.733 142.386C80.5427 142.386 61.6673 123.511 61.6673 100.348C61.6673 77.1853 80.5427 58.282 103.733 58.282C126.924 58.282 145.799 77.1574 145.799 100.348C145.799 123.539 126.924 142.386 103.733 142.386ZM103.733 59.7018C81.3222 59.7018 63.0871 77.9369 63.0871 100.348C63.0871 122.759 81.3222 140.966 103.733 140.966C126.144 140.966 144.379 122.731 144.379 100.348C144.379 77.9648 126.144 59.7018 103.733 59.7018Z" fill="#070707" stroke="#231F20" stroke-miterlimit="10"/>
<path fill-rule="evenodd" clip-rule="evenodd" d="M131.907 54.7185L153.4 76.2109C154.875 77.6864 157.297 77.6864 158.773 76.2109L181.045 53.939L154.151 27.0735L131.879 49.3454C130.404 50.8209 130.404 53.243 131.879 54.7185H131.907Z" fill="white" stroke="#231F20" stroke-miterlimit="10"/>
<path d="M156.072 78.0483C154.875 78.0483 153.734 77.575 152.871 76.7398L131.378 55.2475C130.515 54.4123 130.07 53.2708 130.07 52.0737C130.07 50.8766 130.543 49.7352 131.378 48.8721L154.151 26.0713L182.019 53.939L159.246 76.712C158.411 77.575 157.269 78.0205 156.044 78.0205L156.072 78.0483ZM154.151 28.1036L132.38 49.8744C131.796 50.459 131.49 51.2385 131.49 52.0459C131.49 52.8811 131.796 53.6606 132.38 54.2174L153.873 75.7098C155.042 76.879 157.074 76.879 158.244 75.7098L180.014 53.939L154.151 28.0758V28.1036Z" fill="#070707" stroke="#231F20" stroke-miterlimit="10"/>
<path fill-rule="evenodd" clip-rule="evenodd" d="M158.745 25.9878L182.13 49.3733C183.606 50.8488 185.081 53.6328 182.437 54.4401L179.736 55.2753L152.843 28.382L153.678 25.6816C154.569 22.7305 157.269 24.5123 158.745 25.9878Z" fill="white" stroke="#231F20" stroke-miterlimit="10"/>
<path d="M179.513 56.0548L152.063 28.6047L153.01 25.4867C153.567 23.6771 154.736 23.3987 155.404 23.3987C156.991 23.3987 158.633 24.8742 159.246 25.5145L182.631 48.9C183.745 50.0136 184.914 51.851 184.524 53.3822C184.385 53.9668 183.94 54.7742 182.631 55.1361L179.513 56.0827V56.0548ZM153.65 28.1871L179.931 54.468L182.242 53.772C183.021 53.5214 183.132 53.1316 183.16 53.0203C183.355 52.2964 182.687 50.9601 181.629 49.9022L158.244 26.4889C157.214 25.4588 156.1 24.7907 155.404 24.7907C155.209 24.7907 154.708 24.7907 154.374 25.8764L153.678 28.1871H153.65Z" fill="#070707" stroke="#231F20" stroke-miterlimit="10"/>
<path fill-rule="evenodd" clip-rule="evenodd" d="M78.0928 145.282L56.6004 123.789C55.1249 122.314 52.7029 122.314 51.2274 123.789L28.9555 146.061L55.8209 172.926L78.0928 150.655C79.5683 149.179 79.5683 146.757 78.0928 145.282Z" fill="white" stroke="#231F20" stroke-miterlimit="10"/>
<path d="M55.8209 173.929L27.9533 146.033L50.7262 123.26C52.4245 121.562 55.4033 121.562 57.1016 123.26L78.5939 144.753C80.3478 146.506 80.3478 149.374 78.5939 151.128L55.8209 173.901V173.929ZM29.9577 146.033L55.8209 171.896L77.5917 150.126C78.7888 148.929 78.7888 146.952 77.5917 145.755L56.0993 124.262C54.9301 123.093 52.8978 123.093 51.7285 124.262L29.9577 146.033Z" fill="#070707" stroke="#231F20" stroke-miterlimit="10"/>
<path fill-rule="evenodd" clip-rule="evenodd" d="M51.2552 174.012L27.8697 150.627C26.3942 149.151 24.9187 146.367 27.5635 145.56L30.264 144.725L57.1294 171.59L56.3221 174.291C55.4312 177.242 52.7307 175.46 51.2552 173.984V174.012Z" fill="white" stroke="#231F20" stroke-miterlimit="10"/>
<path d="M54.596 176.629C53.0091 176.629 51.3666 175.154 50.7541 174.513L27.3686 151.128C26.255 150.014 25.0858 148.177 25.4755 146.673C25.6147 146.089 26.0601 145.282 27.3686 144.892L30.4867 143.945L57.9646 171.423L57.018 174.541C56.4613 176.351 55.292 176.629 54.6238 176.629H54.596ZM30.0691 145.532L27.7584 146.228C26.951 146.479 26.8675 146.868 26.8397 146.98C26.6448 147.704 27.3129 149.04 28.3709 150.098L51.7563 173.483C52.7864 174.513 53.9 175.181 54.596 175.181C54.7909 175.181 55.292 175.181 55.6261 174.096L56.3221 171.785L30.0691 145.532Z" fill="#070707" stroke="#231F20" stroke-miterlimit="10"/>
<path fill-rule="evenodd" clip-rule="evenodd" d="M150.282 126.907L128.789 148.4C127.314 149.875 127.314 152.297 128.789 153.773L151.061 176.045L177.926 149.179L155.655 126.907C154.179 125.432 151.757 125.432 150.282 126.907Z" fill="white" stroke="#231F20" stroke-miterlimit="10"/>
<path d="M151.033 177.047L128.26 154.274C126.506 152.52 126.506 149.652 128.26 147.898L149.753 126.406C151.451 124.708 154.43 124.708 156.128 126.406L178.901 149.179L151.033 177.047ZM152.954 126.517C152.119 126.517 151.339 126.852 150.783 127.408L129.29 148.901C128.093 150.098 128.093 152.074 129.29 153.272L151.061 175.042L176.924 149.179L155.153 127.408C154.569 126.824 153.789 126.517 152.982 126.517H152.954Z" fill="#070707" stroke="#231F20" stroke-miterlimit="10"/>
<path fill-rule="evenodd" clip-rule="evenodd" d="M179.012 153.745L155.627 177.13C154.151 178.606 151.367 180.081 150.56 177.437L149.753 174.736L176.618 147.871L179.318 148.706C182.269 149.597 180.488 152.297 179.012 153.773V153.745Z" fill="white" stroke="#231F20" stroke-miterlimit="10"/>
<path d="M152.258 179.608C151.59 179.608 150.393 179.357 149.864 177.659L148.917 174.541L176.395 147.063L179.513 148.01C180.905 148.427 181.379 149.235 181.546 149.819C181.991 151.545 180.265 153.494 179.513 154.246L156.128 177.631C155.181 178.578 153.65 179.608 152.286 179.608H152.258ZM150.532 174.931L151.228 177.242C151.479 178.077 151.924 178.188 152.258 178.188C153.01 178.188 154.179 177.548 155.098 176.629L178.483 153.244C179.653 152.074 180.321 150.849 180.154 150.181C180.07 149.847 179.708 149.569 179.096 149.374L176.785 148.678L150.504 174.959L150.532 174.931Z" fill="#070707" stroke="#231F20" stroke-miterlimit="10"/>
<path fill-rule="evenodd" clip-rule="evenodd" d="M59.7185 73.0928L81.2109 51.6004C82.6864 50.1249 82.6864 47.7029 81.2109 46.2274L58.9668 23.9555L32.0735 50.8488L54.3454 73.1206C55.8209 74.5961 58.243 74.5961 59.7185 73.1206V73.0928Z" fill="white" stroke="#231F20" stroke-miterlimit="10"/>
<path d="M57.0459 74.9302C55.8488 74.9302 54.7073 74.457 53.8443 73.6218L31.0713 50.8488L58.9668 22.9533L81.7398 45.7262C82.6029 46.5614 83.0483 47.7029 83.0483 48.9C83.0483 50.0971 82.575 51.2385 81.7398 52.1016L60.2475 73.5939C59.4123 74.457 58.2708 74.9024 57.0737 74.9024L57.0459 74.9302ZM33.0758 50.8488L54.8465 72.6195C56.0158 73.7888 58.0481 73.7888 59.2174 72.6195L80.7098 51.1272C81.2944 50.5425 81.6006 49.763 81.6006 48.9557C81.6006 48.1483 81.2944 47.341 80.7098 46.7842L58.9668 24.9577L33.0758 50.8488Z" fill="#070707" stroke="#231F20" stroke-miterlimit="10"/>
<path fill-rule="evenodd" clip-rule="evenodd" d="M30.9878 46.2552L54.3733 22.8697C55.8488 21.3942 58.6328 19.9187 59.4401 22.5635L60.2753 25.264L33.382 52.1573L30.6816 51.3499C27.7305 50.459 29.5123 47.7586 30.9878 46.283V46.2552Z" fill="white" stroke="#231F20" stroke-miterlimit="10"/>
<path d="M33.5769 52.9368L30.4588 51.9902C29.0668 51.5726 28.5936 50.7653 28.4265 50.1806C28.0089 48.4546 29.7072 46.5058 30.4588 45.7541L53.8721 22.3686C54.8187 21.4221 56.3499 20.392 57.714 20.392C58.3822 20.392 59.5793 20.6426 60.1083 22.3686L61.0548 25.4867L33.5769 52.9368ZM57.7419 21.8118C56.9902 21.8118 55.8209 22.4521 54.9022 23.3709L31.4889 46.7563C30.3196 47.9256 29.6515 49.1505 29.8185 49.8187C29.902 50.1528 30.264 50.4312 30.8764 50.6261L33.1871 51.3221L59.4679 25.0691L58.772 22.7584C58.5214 21.9232 58.076 21.8118 57.7419 21.8118Z" fill="#070707" stroke="#231F20" stroke-miterlimit="10"/>
</g>
<path opacity="0.62" d="M102.828 93.5C103.178 93.5 103.461 93.6083 103.678 93.825C103.911 94.025 104.028 94.3 104.028 94.65C104.028 95 103.911 95.275 103.678 95.475C103.461 95.675 103.178 95.775 102.828 95.775H98.3778V109.8C98.3778 110.133 98.2528 110.417 98.0028 110.65C97.7695 110.883 97.4695 111 97.1028 111C96.7362 111 96.4278 110.883 96.1778 110.65C95.9445 110.417 95.8278 110.133 95.8278 109.8V95.775H91.4028C91.0528 95.775 90.7612 95.675 90.5278 95.475C90.3112 95.2583 90.2028 94.975 90.2028 94.625C90.2028 94.2917 90.3112 94.025 90.5278 93.825C90.7612 93.6083 91.0528 93.5 91.4028 93.5H102.828ZM110.408 93.5C110.741 93.5167 111.008 93.6417 111.208 93.875C111.424 94.0917 111.533 94.3667 111.533 94.7V109.8C111.533 110.133 111.408 110.417 111.158 110.65C110.908 110.883 110.599 111 110.233 111C109.866 111 109.566 110.883 109.333 110.65C109.099 110.417 108.983 110.133 108.983 109.8V96.8L106.783 98.125C106.599 98.2417 106.391 98.3 106.158 98.3C105.824 98.3 105.541 98.175 105.308 97.925C105.074 97.6583 104.958 97.375 104.958 97.075C104.958 96.875 105.016 96.6833 105.133 96.5C105.249 96.3167 105.399 96.1667 105.583 96.05L109.533 93.675C109.766 93.5583 110.058 93.5 110.408 93.5Z" fill="#A2774C"/>
</g>
<mask id="mask1_35_508" style="mask-type:alpha" maskUnits="userSpaceOnUse" x="321" y="2" width="205" height="204">
<rect x="321.5" y="2.5" width="204" height="203" rx="15.5" fill="#D9D9D9" stroke="#ECEDED"/>
</mask>
<g mask="url(#mask1_35_508)">
<g opacity="0.28">
<path fill-rule="evenodd" clip-rule="evenodd" d="M425.733 56.8254C427.543 56.8254 428.991 58.3009 428.991 60.0827V148.558C428.991 150.367 427.515 151.815 425.733 151.815C423.924 151.815 422.476 150.339 422.476 148.558V60.1105C422.476 58.3009 423.952 56.8532 425.733 56.8532V56.8254Z" fill="white" stroke="#231F20" stroke-miterlimit="10"/>
<path d="M425.733 152.539C423.534 152.539 421.752 150.757 421.752 148.558V60.1105C421.752 57.9112 423.534 56.1294 425.733 56.1294C427.933 56.1294 429.714 57.9112 429.714 60.1105V148.586C429.714 150.785 427.933 152.567 425.733 152.567V152.539ZM425.733 57.5214C424.313 57.5214 423.172 58.6628 423.172 60.0827V148.558C423.172 149.977 424.313 151.119 425.733 151.119C427.153 151.119 428.295 149.977 428.295 148.558V60.1105C428.295 58.6907 427.153 57.5492 425.733 57.5492V57.5214Z" fill="#070707" stroke="#231F20" stroke-miterlimit="10"/>
<path fill-rule="evenodd" clip-rule="evenodd" d="M473.256 104.348C473.256 106.158 471.78 107.633 469.999 107.633H381.496C379.686 107.633 378.239 106.158 378.239 104.348C378.239 102.538 379.714 101.091 381.496 101.091H469.971C471.78 101.091 473.228 102.566 473.228 104.348H473.256Z" fill="white" stroke="#231F20" stroke-miterlimit="10"/>
<path d="M469.971 108.329H381.496C379.296 108.329 377.515 106.547 377.515 104.348C377.515 102.149 379.296 100.367 381.496 100.367H469.971C472.17 100.367 473.952 102.149 473.952 104.348C473.952 106.547 472.17 108.329 469.971 108.329ZM381.496 101.787C380.076 101.787 378.935 102.928 378.935 104.348C378.935 105.768 380.076 106.909 381.496 106.909H469.971C471.391 106.909 472.532 105.768 472.532 104.348C472.532 102.928 471.391 101.787 469.971 101.787H381.496Z" fill="#070707" stroke="#231F20" stroke-miterlimit="10"/>
<path fill-rule="evenodd" clip-rule="evenodd" d="M425.733 145.662C448.506 145.662 467.075 127.093 467.075 104.32C467.075 81.5472 448.506 62.978 425.733 62.978C402.96 62.978 384.391 81.5472 384.391 104.32C384.391 127.093 402.96 145.662 425.733 145.662Z" fill="white" stroke="#231F20" stroke-miterlimit="10"/>
<path d="M425.733 146.386C402.543 146.386 383.667 127.511 383.667 104.348C383.667 81.1853 402.543 62.282 425.733 62.282C448.924 62.282 467.799 81.1574 467.799 104.348C467.799 127.539 448.924 146.386 425.733 146.386ZM425.733 63.7018C403.322 63.7018 385.087 81.9369 385.087 104.348C385.087 126.759 403.322 144.966 425.733 144.966C448.144 144.966 466.379 126.731 466.379 104.348C466.379 81.9648 448.144 63.7018 425.733 63.7018Z" fill="#070707" stroke="#231F20" stroke-miterlimit="10"/>
<path fill-rule="evenodd" clip-rule="evenodd" d="M453.907 58.7185L475.4 80.2109C476.875 81.6864 479.297 81.6864 480.773 80.2109L503.045 57.939L476.151 31.0735L453.879 53.3454C452.404 54.8209 452.404 57.243 453.879 58.7185H453.907Z" fill="white" stroke="#231F20" stroke-miterlimit="10"/>
<path d="M478.072 82.0483C476.875 82.0483 475.734 81.575 474.871 80.7398L453.378 59.2475C452.515 58.4123 452.07 57.2708 452.07 56.0737C452.07 54.8766 452.543 53.7352 453.378 52.8721L476.151 30.0713L504.019 57.939L481.246 80.712C480.411 81.575 479.269 82.0205 478.044 82.0205L478.072 82.0483ZM476.151 32.1036L454.38 53.8744C453.796 54.459 453.49 55.2385 453.49 56.0459C453.49 56.8811 453.796 57.6606 454.38 58.2174L475.873 79.7098C477.042 80.879 479.074 80.879 480.244 79.7098L502.014 57.939L476.151 32.0758V32.1036Z" fill="#070707" stroke="#231F20" stroke-miterlimit="10"/>
<path fill-rule="evenodd" clip-rule="evenodd" d="M480.745 29.9878L504.13 53.3733C505.606 54.8488 507.081 57.6328 504.437 58.4401L501.736 59.2753L474.843 32.382L475.678 29.6816C476.569 26.7305 479.269 28.5123 480.745 29.9878Z" fill="white" stroke="#231F20" stroke-miterlimit="10"/>
<path d="M501.513 60.0548L474.063 32.6047L475.01 29.4867C475.567 27.6771 476.736 27.3987 477.404 27.3987C478.991 27.3987 480.633 28.8742 481.246 29.5145L504.631 52.9C505.745 54.0136 506.914 55.851 506.524 57.3822C506.385 57.9668 505.94 58.7742 504.631 59.1361L501.513 60.0827V60.0548ZM475.65 32.1871L501.931 58.468L504.242 57.772C505.021 57.5214 505.132 57.1316 505.16 57.0203C505.355 56.2964 504.687 54.9601 503.629 53.9022L480.244 30.4889C479.214 29.4588 478.1 28.7907 477.404 28.7907C477.209 28.7907 476.708 28.7907 476.374 29.8764L475.678 32.1871H475.65Z" fill="#070707" stroke="#231F20" stroke-miterlimit="10"/>
<path fill-rule="evenodd" clip-rule="evenodd" d="M400.093 149.282L378.6 127.789C377.125 126.314 374.703 126.314 373.227 127.789L350.955 150.061L377.821 176.926L400.093 154.655C401.568 153.179 401.568 150.757 400.093 149.282Z" fill="white" stroke="#231F20" stroke-miterlimit="10"/>
<path d="M377.821 177.929L349.953 150.033L372.726 127.26C374.424 125.562 377.403 125.562 379.102 127.26L400.594 148.753C402.348 150.506 402.348 153.374 400.594 155.128L377.821 177.901V177.929ZM351.958 150.033L377.821 175.896L399.592 154.126C400.789 152.929 400.789 150.952 399.592 149.755L378.099 128.262C376.93 127.093 374.898 127.093 373.728 128.262L351.958 150.033Z" fill="#070707" stroke="#231F20" stroke-miterlimit="10"/>
<path fill-rule="evenodd" clip-rule="evenodd" d="M373.255 178.012L349.87 154.627C348.394 153.151 346.919 150.367 349.563 149.56L352.264 148.725L379.129 175.59L378.322 178.291C377.431 181.242 374.731 179.46 373.255 177.984V178.012Z" fill="white" stroke="#231F20" stroke-miterlimit="10"/>
<path d="M376.596 180.629C375.009 180.629 373.367 179.154 372.754 178.513L349.369 155.128C348.255 154.014 347.086 152.177 347.476 150.673C347.615 150.089 348.06 149.282 349.369 148.892L352.487 147.945L379.965 175.423L379.018 178.541C378.461 180.351 377.292 180.629 376.624 180.629H376.596ZM352.069 149.532L349.758 150.228C348.951 150.479 348.868 150.868 348.84 150.98C348.645 151.704 349.313 153.04 350.371 154.098L373.756 177.483C374.786 178.513 375.9 179.181 376.596 179.181C376.791 179.181 377.292 179.181 377.626 178.096L378.322 175.785L352.069 149.532Z" fill="#070707" stroke="#231F20" stroke-miterlimit="10"/>
<path fill-rule="evenodd" clip-rule="evenodd" d="M472.282 130.907L450.789 152.4C449.314 153.875 449.314 156.297 450.789 157.773L473.061 180.045L499.926 153.179L477.655 130.907C476.179 129.432 473.757 129.432 472.282 130.907Z" fill="white" stroke="#231F20" stroke-miterlimit="10"/>
<path d="M473.033 181.047L450.26 158.274C448.506 156.52 448.506 153.652 450.26 151.898L471.753 130.406C473.451 128.708 476.43 128.708 478.128 130.406L500.901 153.179L473.033 181.047ZM474.954 130.517C474.119 130.517 473.339 130.852 472.783 131.408L451.29 152.901C450.093 154.098 450.093 156.074 451.29 157.272L473.061 179.042L498.924 153.179L477.153 131.408C476.569 130.824 475.789 130.517 474.982 130.517H474.954Z" fill="#070707" stroke="#231F20" stroke-miterlimit="10"/>
<path fill-rule="evenodd" clip-rule="evenodd" d="M501.012 157.745L477.627 181.13C476.151 182.606 473.367 184.081 472.56 181.437L471.753 178.736L498.618 151.871L501.318 152.706C504.269 153.597 502.488 156.297 501.012 157.773V157.745Z" fill="white" stroke="#231F20" stroke-miterlimit="10"/>
<path d="M474.258 183.608C473.59 183.608 472.393 183.357 471.864 181.659L470.917 178.541L498.395 151.063L501.513 152.01C502.905 152.427 503.379 153.235 503.546 153.819C503.991 155.545 502.265 157.494 501.513 158.246L478.128 181.631C477.181 182.578 475.65 183.608 474.286 183.608H474.258ZM472.532 178.931L473.228 181.242C473.479 182.077 473.924 182.188 474.258 182.188C475.01 182.188 476.179 181.548 477.098 180.629L500.483 157.244C501.653 156.074 502.321 154.849 502.154 154.181C502.07 153.847 501.708 153.569 501.096 153.374L498.785 152.678L472.504 178.959L472.532 178.931Z" fill="#070707" stroke="#231F20" stroke-miterlimit="10"/>
<path fill-rule="evenodd" clip-rule="evenodd" d="M381.719 77.0928L403.211 55.6004C404.686 54.1249 404.686 51.7029 403.211 50.2274L380.967 27.9555L354.074 54.8488L376.345 77.1206C377.821 78.5961 380.243 78.5961 381.719 77.1206V77.0928Z" fill="white" stroke="#231F20" stroke-miterlimit="10"/>
<path d="M379.046 78.9302C377.849 78.9302 376.707 78.457 375.844 77.6218L353.071 54.8488L380.967 26.9533L403.74 49.7262C404.603 50.5614 405.048 51.7029 405.048 52.9C405.048 54.0971 404.575 55.2385 403.74 56.1016L382.247 77.5939C381.412 78.457 380.271 78.9024 379.074 78.9024L379.046 78.9302ZM355.076 54.8488L376.847 76.6195C378.016 77.7888 380.048 77.7888 381.217 76.6195L402.71 55.1272C403.294 54.5425 403.601 53.763 403.601 52.9557C403.601 52.1483 403.294 51.341 402.71 50.7842L380.967 28.9577L355.076 54.8488Z" fill="#070707" stroke="#231F20" stroke-miterlimit="10"/>
<path fill-rule="evenodd" clip-rule="evenodd" d="M352.988 50.2552L376.373 26.8697C377.849 25.3942 380.633 23.9187 381.44 26.5635L382.275 29.264L355.382 56.1573L352.682 55.3499C349.731 54.459 351.512 51.7586 352.988 50.283V50.2552Z" fill="white" stroke="#231F20" stroke-miterlimit="10"/>
<path d="M355.577 56.9368L352.459 55.9902C351.067 55.5726 350.594 54.7653 350.427 54.1806C350.009 52.4546 351.707 50.5058 352.459 49.7541L375.872 26.3686C376.819 25.4221 378.35 24.392 379.714 24.392C380.382 24.392 381.579 24.6426 382.108 26.3686L383.055 29.4867L355.577 56.9368ZM379.742 25.8118C378.99 25.8118 377.821 26.4521 376.902 27.3709L353.489 50.7563C352.32 51.9256 351.651 53.1505 351.819 53.8187C351.902 54.1528 352.264 54.4312 352.876 54.6261L355.187 55.3221L381.468 29.0691L380.772 26.7584C380.521 25.9232 380.076 25.8118 379.742 25.8118Z" fill="#070707" stroke="#231F20" stroke-miterlimit="10"/>
</g>
<path opacity="0.62" d="M421.85 97.5C422.2 97.5 422.483 97.6083 422.7 97.825C422.933 98.025 423.05 98.3 423.05 98.65C423.05 99 422.933 99.275 422.7 99.475C422.483 99.675 422.2 99.775 421.85 99.775H417.4V113.8C417.4 114.133 417.275 114.417 417.025 114.65C416.791 114.883 416.491 115 416.125 115C415.758 115 415.45 114.883 415.2 114.65C414.966 114.417 414.85 114.133 414.85 113.8V99.775H410.425C410.075 99.775 409.783 99.675 409.55 99.475C409.333 99.2583 409.225 98.975 409.225 98.625C409.225 98.2917 409.333 98.025 409.55 97.825C409.783 97.6083 410.075 97.5 410.425 97.5H421.85ZM435.554 112.8C435.871 112.8 436.138 112.908 436.354 113.125C436.571 113.342 436.679 113.608 436.679 113.925C436.679 114.242 436.571 114.5 436.354 114.7C436.138 114.9 435.871 115 435.554 115H426.679C426.346 115 426.071 114.9 425.854 114.7C425.638 114.483 425.529 114.2 425.529 113.85C425.529 113.55 425.646 113.267 425.879 113L431.454 106.95C433.004 105.3 433.779 103.842 433.779 102.575C433.779 101.675 433.479 100.933 432.879 100.35C432.296 99.75 431.546 99.45 430.629 99.45C430.013 99.45 429.421 99.625 428.854 99.975C428.288 100.325 427.829 100.825 427.479 101.475C427.213 101.825 426.896 102 426.529 102C426.246 102 425.979 101.892 425.729 101.675C425.479 101.458 425.354 101.208 425.354 100.925C425.354 100.742 425.413 100.55 425.529 100.35C425.663 100.15 425.846 99.9167 426.079 99.65C426.629 98.9167 427.329 98.3333 428.179 97.9C429.029 97.4667 429.888 97.25 430.754 97.25C431.871 97.25 432.838 97.475 433.654 97.925C434.471 98.375 435.096 98.9917 435.529 99.775C435.979 100.558 436.204 101.458 436.204 102.475C436.204 104.392 435.171 106.458 433.104 108.675L429.329 112.8H435.554Z" fill="#A2774C"/>
</g>
<mask id="mask2_35_508" style="mask-type:alpha" maskUnits="userSpaceOnUse" x="643" y="2" width="205" height="204">
<rect x="643.5" y="2.5" width="204" height="203" rx="15.5" fill="#D9D9D9" stroke="#ECEDED"/>
</mask>
<g mask="url(#mask2_35_508)">
<g opacity="0.28">
<path fill-rule="evenodd" clip-rule="evenodd" d="M747.733 56.8254C749.543 56.8254 750.991 58.3009 750.991 60.0827V148.558C750.991 150.367 749.515 151.815 747.733 151.815C745.924 151.815 744.476 150.339 744.476 148.558V60.1105C744.476 58.3009 745.952 56.8532 747.733 56.8532V56.8254Z" fill="white" stroke="#231F20" stroke-miterlimit="10"/>
<path d="M747.733 152.539C745.534 152.539 743.752 150.757 743.752 148.558V60.1105C743.752 57.9112 745.534 56.1294 747.733 56.1294C749.933 56.1294 751.714 57.9112 751.714 60.1105V148.586C751.714 150.785 749.933 152.567 747.733 152.567V152.539ZM747.733 57.5214C746.313 57.5214 745.172 58.6628 745.172 60.0827V148.558C745.172 149.977 746.313 151.119 747.733 151.119C749.153 151.119 750.295 149.977 750.295 148.558V60.1105C750.295 58.6907 749.153 57.5492 747.733 57.5492V57.5214Z" fill="#070707" stroke="#231F20" stroke-miterlimit="10"/>
<path fill-rule="evenodd" clip-rule="evenodd" d="M795.256 104.348C795.256 106.158 793.78 107.633 791.999 107.633H703.496C701.686 107.633 700.239 106.158 700.239 104.348C700.239 102.538 701.714 101.091 703.496 101.091H791.971C793.78 101.091 795.228 102.566 795.228 104.348H795.256Z" fill="white" stroke="#231F20" stroke-miterlimit="10"/>
<path d="M791.971 108.329H703.496C701.296 108.329 699.515 106.547 699.515 104.348C699.515 102.149 701.296 100.367 703.496 100.367H791.971C794.17 100.367 795.952 102.149 795.952 104.348C795.952 106.547 794.17 108.329 791.971 108.329ZM703.496 101.787C702.076 101.787 700.935 102.928 700.935 104.348C700.935 105.768 702.076 106.909 703.496 106.909H791.971C793.391 106.909 794.532 105.768 794.532 104.348C794.532 102.928 793.391 101.787 791.971 101.787H703.496Z" fill="#070707" stroke="#231F20" stroke-miterlimit="10"/>
<path fill-rule="evenodd" clip-rule="evenodd" d="M747.733 145.662C770.506 145.662 789.075 127.093 789.075 104.32C789.075 81.5472 770.506 62.978 747.733 62.978C724.96 62.978 706.391 81.5472 706.391 104.32C706.391 127.093 724.96 145.662 747.733 145.662Z" fill="white" stroke="#231F20" stroke-miterlimit="10"/>
<path d="M747.733 146.386C724.543 146.386 705.667 127.511 705.667 104.348C705.667 81.1853 724.543 62.282 747.733 62.282C770.924 62.282 789.799 81.1574 789.799 104.348C789.799 127.539 770.924 146.386 747.733 146.386ZM747.733 63.7018C725.322 63.7018 707.087 81.9369 707.087 104.348C707.087 126.759 725.322 144.966 747.733 144.966C770.144 144.966 788.379 126.731 788.379 104.348C788.379 81.9648 770.144 63.7018 747.733 63.7018Z" fill="#070707" stroke="#231F20" stroke-miterlimit="10"/>
<path fill-rule="evenodd" clip-rule="evenodd" d="M775.907 58.7185L797.4 80.2109C798.875 81.6864 801.297 81.6864 802.773 80.2109L825.044 57.939L798.151 31.0735L775.879 53.3454C774.404 54.8209 774.404 57.243 775.879 58.7185H775.907Z" fill="white" stroke="#231F20" stroke-miterlimit="10"/>
<path d="M800.072 82.0483C798.875 82.0483 797.734 81.575 796.871 80.7398L775.378 59.2475C774.515 58.4123 774.07 57.2708 774.07 56.0737C774.07 54.8766 774.543 53.7352 775.378 52.8721L798.151 30.0713L826.019 57.939L803.246 80.712C802.411 81.575 801.269 82.0205 800.044 82.0205L800.072 82.0483ZM798.151 32.1036L776.38 53.8744C775.796 54.459 775.49 55.2385 775.49 56.0459C775.49 56.8811 775.796 57.6606 776.38 58.2174L797.873 79.7098C799.042 80.879 801.074 80.879 802.244 79.7098L824.014 57.939L798.151 32.0758V32.1036Z" fill="#070707" stroke="#231F20" stroke-miterlimit="10"/>
<path fill-rule="evenodd" clip-rule="evenodd" d="M802.745 29.9878L826.13 53.3733C827.606 54.8488 829.081 57.6328 826.437 58.4401L823.736 59.2753L796.843 32.382L797.678 29.6816C798.569 26.7305 801.269 28.5123 802.745 29.9878Z" fill="white" stroke="#231F20" stroke-miterlimit="10"/>
<path d="M823.513 60.0548L796.063 32.6047L797.01 29.4867C797.567 27.6771 798.736 27.3987 799.404 27.3987C800.991 27.3987 802.633 28.8742 803.246 29.5145L826.631 52.9C827.745 54.0136 828.914 55.851 828.524 57.3822C828.385 57.9668 827.94 58.7742 826.631 59.1361L823.513 60.0827V60.0548ZM797.65 32.1871L823.931 58.468L826.242 57.772C827.021 57.5214 827.132 57.1316 827.16 57.0203C827.355 56.2964 826.687 54.9601 825.629 53.9022L802.244 30.4889C801.214 29.4588 800.1 28.7907 799.404 28.7907C799.209 28.7907 798.708 28.7907 798.374 29.8764L797.678 32.1871H797.65Z" fill="#070707" stroke="#231F20" stroke-miterlimit="10"/>
<path fill-rule="evenodd" clip-rule="evenodd" d="M722.093 149.282L700.6 127.789C699.125 126.314 696.703 126.314 695.227 127.789L672.955 150.061L699.821 176.926L722.093 154.655C723.568 153.179 723.568 150.757 722.093 149.282Z" fill="white" stroke="#231F20" stroke-miterlimit="10"/>
<path d="M699.821 177.929L671.953 150.033L694.726 127.26C696.424 125.562 699.403 125.562 701.102 127.26L722.594 148.753C724.348 150.506 724.348 153.374 722.594 155.128L699.821 177.901V177.929ZM673.958 150.033L699.821 175.896L721.592 154.126C722.789 152.929 722.789 150.952 721.592 149.755L700.099 128.262C698.93 127.093 696.898 127.093 695.728 128.262L673.958 150.033Z" fill="#070707" stroke="#231F20" stroke-miterlimit="10"/>
<path fill-rule="evenodd" clip-rule="evenodd" d="M695.255 178.012L671.87 154.627C670.394 153.151 668.919 150.367 671.564 149.56L674.264 148.725L701.129 175.59L700.322 178.291C699.431 181.242 696.731 179.46 695.255 177.984V178.012Z" fill="white" stroke="#231F20" stroke-miterlimit="10"/>
<path d="M698.596 180.629C697.009 180.629 695.367 179.154 694.754 178.513L671.369 155.128C670.255 154.014 669.086 152.177 669.476 150.673C669.615 150.089 670.06 149.282 671.369 148.892L674.487 147.945L701.965 175.423L701.018 178.541C700.461 180.351 699.292 180.629 698.624 180.629H698.596ZM674.069 149.532L671.758 150.228C670.951 150.479 670.868 150.868 670.84 150.98C670.645 151.704 671.313 153.04 672.371 154.098L695.756 177.483C696.786 178.513 697.9 179.181 698.596 179.181C698.791 179.181 699.292 179.181 699.626 178.096L700.322 175.785L674.069 149.532Z" fill="#070707" stroke="#231F20" stroke-miterlimit="10"/>
<path fill-rule="evenodd" clip-rule="evenodd" d="M794.282 130.907L772.789 152.4C771.314 153.875 771.314 156.297 772.789 157.773L795.061 180.045L821.926 153.179L799.655 130.907C798.179 129.432 795.757 129.432 794.282 130.907Z" fill="white" stroke="#231F20" stroke-miterlimit="10"/>
<path d="M795.033 181.047L772.26 158.274C770.506 156.52 770.506 153.652 772.26 151.898L793.753 130.406C795.451 128.708 798.43 128.708 800.128 130.406L822.901 153.179L795.033 181.047ZM796.954 130.517C796.119 130.517 795.339 130.852 794.783 131.408L773.29 152.901C772.093 154.098 772.093 156.074 773.29 157.272L795.061 179.042L820.924 153.179L799.153 131.408C798.569 130.824 797.789 130.517 796.982 130.517H796.954Z" fill="#070707" stroke="#231F20" stroke-miterlimit="10"/>
<path fill-rule="evenodd" clip-rule="evenodd" d="M823.012 157.745L799.627 181.13C798.151 182.606 795.367 184.081 794.56 181.437L793.753 178.736L820.618 151.871L823.318 152.706C826.27 153.597 824.488 156.297 823.012 157.773V157.745Z" fill="white" stroke="#231F20" stroke-miterlimit="10"/>
<path d="M796.258 183.608C795.59 183.608 794.393 183.357 793.864 181.659L792.917 178.541L820.395 151.063L823.513 152.01C824.905 152.427 825.379 153.235 825.546 153.819C825.991 155.545 824.265 157.494 823.513 158.246L800.128 181.631C799.181 182.578 797.65 183.608 796.286 183.608H796.258ZM794.532 178.931L795.228 181.242C795.479 182.077 795.924 182.188 796.258 182.188C797.01 182.188 798.179 181.548 799.098 180.629L822.483 157.244C823.653 156.074 824.321 154.849 824.154 154.181C824.07 153.847 823.708 153.569 823.096 153.374L820.785 152.678L794.504 178.959L794.532 178.931Z" fill="#070707" stroke="#231F20" stroke-miterlimit="10"/>
<path fill-rule="evenodd" clip-rule="evenodd" d="M703.719 77.0928L725.211 55.6004C726.686 54.1249 726.686 51.7029 725.211 50.2274L702.967 27.9555L676.074 54.8488L698.345 77.1206C699.821 78.5961 702.243 78.5961 703.719 77.1206V77.0928Z" fill="white" stroke="#231F20" stroke-miterlimit="10"/>
<path d="M701.046 78.9302C699.849 78.9302 698.707 78.457 697.844 77.6218L675.071 54.8488L702.967 26.9533L725.74 49.7262C726.603 50.5614 727.048 51.7029 727.048 52.9C727.048 54.0971 726.575 55.2385 725.74 56.1016L704.247 77.5939C703.412 78.457 702.271 78.9024 701.074 78.9024L701.046 78.9302ZM677.076 54.8488L698.847 76.6195C700.016 77.7888 702.048 77.7888 703.217 76.6195L724.71 55.1272C725.294 54.5425 725.601 53.763 725.601 52.9557C725.601 52.1483 725.294 51.341 724.71 50.7842L702.967 28.9577L677.076 54.8488Z" fill="#070707" stroke="#231F20" stroke-miterlimit="10"/>
<path fill-rule="evenodd" clip-rule="evenodd" d="M674.988 50.2552L698.373 26.8697C699.849 25.3942 702.633 23.9187 703.44 26.5635L704.275 29.264L677.382 56.1573L674.682 55.3499C671.731 54.459 673.512 51.7586 674.988 50.283V50.2552Z" fill="white" stroke="#231F20" stroke-miterlimit="10"/>
<path d="M677.577 56.9368L674.459 55.9902C673.067 55.5726 672.594 54.7653 672.427 54.1806C672.009 52.4546 673.707 50.5058 674.459 49.7541L697.872 26.3686C698.819 25.4221 700.35 24.392 701.714 24.392C702.382 24.392 703.579 24.6426 704.108 26.3686L705.055 29.4867L677.577 56.9368ZM701.742 25.8118C700.99 25.8118 699.821 26.4521 698.902 27.3709L675.489 50.7563C674.32 51.9256 673.652 53.1505 673.819 53.8187C673.902 54.1528 674.264 54.4312 674.876 54.6261L677.187 55.3221L703.468 29.0691L702.772 26.7584C702.521 25.9232 702.076 25.8118 701.742 25.8118Z" fill="#070707" stroke="#231F20" stroke-miterlimit="10"/>
</g>
<path opacity="0.62" d="M744.692 97.5C745.042 97.5 745.325 97.6083 745.542 97.825C745.775 98.025 745.892 98.3 745.892 98.65C745.892 99 745.775 99.275 745.542 99.475C745.325 99.675 745.042 99.775 744.692 99.775H740.242V113.8C740.242 114.133 740.117 114.417 739.867 114.65C739.633 114.883 739.333 115 738.967 115C738.6 115 738.292 114.883 738.042 114.65C737.808 114.417 737.692 114.133 737.692 113.8V99.775H733.267C732.917 99.775 732.625 99.675 732.392 99.475C732.175 99.2583 732.067 98.975 732.067 98.625C732.067 98.2917 732.175 98.025 732.392 97.825C732.625 97.6083 732.917 97.5 733.267 97.5H744.692ZM753.571 103.925C754.521 103.925 755.371 104.167 756.121 104.65C756.888 105.117 757.488 105.758 757.921 106.575C758.355 107.392 758.571 108.308 758.571 109.325C758.571 110.508 758.296 111.55 757.746 112.45C757.196 113.35 756.438 114.042 755.471 114.525C754.505 115.008 753.396 115.25 752.146 115.25C751.48 115.25 750.83 115.158 750.196 114.975C749.58 114.792 749.046 114.525 748.596 114.175C748.146 113.925 747.921 113.583 747.921 113.15C747.921 112.833 748.03 112.542 748.246 112.275C748.48 112.008 748.755 111.875 749.071 111.875C749.371 111.875 749.671 111.983 749.971 112.2C750.655 112.833 751.513 113.15 752.546 113.15C753.196 113.15 753.796 113 754.346 112.7C754.913 112.4 755.363 111.975 755.696 111.425C756.03 110.858 756.196 110.208 756.196 109.475C756.196 108.392 755.863 107.558 755.196 106.975C754.53 106.392 753.73 106.1 752.796 106.1C752.53 106.1 752.146 106.158 751.646 106.275C751.28 106.375 751.005 106.425 750.821 106.425C750.521 106.425 750.28 106.325 750.096 106.125C749.913 105.908 749.821 105.642 749.821 105.325C749.821 105.142 749.855 104.983 749.921 104.85C749.988 104.717 750.096 104.558 750.246 104.375L754.496 99.7H748.721C748.405 99.7 748.138 99.5917 747.921 99.375C747.705 99.1583 747.596 98.8917 747.596 98.575C747.596 98.2583 747.705 98 747.921 97.8C748.138 97.6 748.405 97.5 748.721 97.5H756.696C757.08 97.5 757.38 97.6167 757.596 97.85C757.813 98.0833 757.921 98.3667 757.921 98.7C757.921 99 757.763 99.3083 757.446 99.625L753.571 103.925Z" fill="#A2774C"/>
</g>
</svg>
