<svg width="20" height="16" viewBox="0 0 20 16" fill="none" xmlns="http://www.w3.org/2000/svg">
<path d="M6.57147 5.99999C8.77719 5.99999 10.5715 4.35523 10.5715 2.33332C10.5715 0.311418 8.77719 -1.33334 6.57147 -1.33334C4.36576 -1.33334 2.57147 0.311418 2.57147 2.33332C2.57147 4.35523 4.36576 5.99999 6.57147 5.99999ZM6.57147 0.761894C7.52004 0.761894 8.28576 1.4638 8.28576 2.33332C8.28576 3.20285 7.52004 3.90475 6.57147 3.90475C5.6229 3.90475 4.85719 3.20285 4.85719 2.33332C4.85719 1.4638 5.6229 0.761894 6.57147 0.761894ZM6.62862 11.2381H1.73719C2.86862 10.7143 4.8229 10.1905 6.57147 10.1905C6.69719 10.1905 6.83433 10.2009 6.96004 10.2009C7.34862 9.43618 8.0229 8.80761 8.83433 8.30475C8.00004 8.16856 7.21147 8.09523 6.57147 8.09523C3.89719 8.09523 -1.42853 9.32094 -1.42853 11.7619V13.3333H6.57147V11.7619C6.57147 11.5838 6.59433 11.4057 6.62862 11.2381ZM15.1429 8.61904C13.04 8.61904 8.85719 9.67713 8.85719 11.7619V13.3333H21.4286V11.7619C21.4286 9.67713 17.2458 8.61904 15.1429 8.61904ZM16.5258 6.71237C17.3943 6.26189 18 5.41332 18 4.42856C18 2.98285 16.72 1.80951 15.1429 1.80951C13.5658 1.80951 12.2858 2.98285 12.2858 4.42856C12.2858 5.41332 12.8915 6.26189 13.76 6.71237C14.1715 6.92189 14.64 7.04761 15.1429 7.04761C15.6458 7.04761 16.1143 6.92189 16.5258 6.71237Z" fill="#2C3832"/>
</svg>
