<svg width="18" height="17" viewBox="0 0 18 17" fill="none" xmlns="http://www.w3.org/2000/svg">
<path d="M5.91428 6.49999C7.89942 6.49999 9.51428 4.85523 9.51428 2.83332C9.51428 0.811418 7.89942 -0.833344 5.91428 -0.833344C3.92914 -0.833344 2.31428 0.811418 2.31428 2.83332C2.31428 4.85523 3.92914 6.49999 5.91428 6.49999ZM5.91428 1.26189C6.76799 1.26189 7.45714 1.9638 7.45714 2.83332C7.45714 3.70285 6.76799 4.40475 5.91428 4.40475C5.06057 4.40475 4.37142 3.70285 4.37142 2.83332C4.37142 1.9638 5.06057 1.26189 5.91428 1.26189ZM5.96571 11.7381H1.56342C2.58171 11.2143 4.34057 10.6905 5.91428 10.6905C6.02742 10.6905 6.15085 10.7009 6.26399 10.7009C6.61371 9.93618 7.22056 9.30761 7.95085 8.80475C7.19999 8.66856 6.49028 8.59523 5.91428 8.59523C3.50742 8.59523 -1.28572 9.82094 -1.28572 12.2619V13.8333H5.91428V12.2619C5.91428 12.0838 5.93485 11.9057 5.96571 11.7381ZM13.6286 9.11904C11.736 9.11904 7.97142 10.1771 7.97142 12.2619V13.8333H19.2857V12.2619C19.2857 10.1771 15.5211 9.11904 13.6286 9.11904ZM14.8731 7.21237C15.6549 6.76189 16.2 5.91332 16.2 4.92856C16.2 3.48285 15.048 2.30951 13.6286 2.30951C12.2091 2.30951 11.0571 3.48285 11.0571 4.92856C11.0571 5.91332 11.6023 6.76189 12.384 7.21237C12.7543 7.42189 13.176 7.54761 13.6286 7.54761C14.0811 7.54761 14.5029 7.42189 14.8731 7.21237Z" fill="#2C3832"/>
</svg>
