<svg width="17" height="17" viewBox="0 0 17 17" fill="none" xmlns="http://www.w3.org/2000/svg">
<path d="M14.7464 14.6835L14.7464 14.6836L14.7534 14.6904C14.8049 14.7399 14.8151 14.8378 14.7464 14.9064C14.6817 14.9712 14.5883 14.9712 14.5235 14.9064L1.94354 2.32644C1.8788 2.2617 1.8788 2.16828 1.94354 2.10355C2.00828 2.03881 2.1017 2.03881 2.16644 2.10355L14.7464 14.6835Z" fill="white" stroke="black"/>
<path d="M1.45227 0.701016L1.41568 0.737591L1.45227 0.701016Z" fill="#070707" stroke="black"/>
<path d="M2.16647 14.9064L2.52002 15.26L2.16647 14.9064C2.10173 14.9712 2.00831 14.9712 1.94357 14.9064C1.87492 14.8378 1.88509 14.7399 1.93657 14.6904L1.93664 14.6905L1.94357 14.6835L14.5236 2.10355C14.5883 2.03881 14.6817 2.03881 14.7465 2.10355C14.8112 2.16828 14.8112 2.2617 14.7465 2.32644L15.1 2.67999L14.7465 2.32644L2.16647 14.9064Z" fill="white" stroke="black"/>
<mask id="path-4-inside-1_35_675" fill="white">
<path d="M1.0846 17C0.801664 17 0.530513 16.8937 0.318308 16.6811C0.117892 16.4804 0 16.2088 0 15.9135C0 15.6183 0.106103 15.3585 0.318308 15.1577L15.1609 0.301146C15.5617 -0.100382 16.2809 -0.100382 16.6817 0.301146C16.8821 0.50191 17 0.773532 17 1.05696C17 1.3404 16.8939 1.61202 16.6817 1.82459L1.8509 16.6811C1.65049 16.8819 1.37933 17 1.0846 17ZM15.9154 0.584578C15.7857 0.584578 15.6678 0.631817 15.5735 0.726294L0.754508 15.5828C0.660194 15.6773 0.613037 15.7954 0.613037 15.9135C0.613037 16.0316 0.660194 16.1615 0.754508 16.256C0.931345 16.4331 1.24965 16.4331 1.42649 16.256L16.2573 1.39944C16.3516 1.30497 16.3988 1.18687 16.3988 1.05696C16.3988 0.927058 16.3516 0.808961 16.2573 0.726294C16.163 0.631817 16.0451 0.584578 15.9272 0.584578H15.9154Z"/>
</mask>
<path d="M1.0846 17C0.801664 17 0.530513 16.8937 0.318308 16.6811C0.117892 16.4804 0 16.2088 0 15.9135C0 15.6183 0.106103 15.3585 0.318308 15.1577L15.1609 0.301146C15.5617 -0.100382 16.2809 -0.100382 16.6817 0.301146C16.8821 0.50191 17 0.773532 17 1.05696C17 1.3404 16.8939 1.61202 16.6817 1.82459L1.8509 16.6811C1.65049 16.8819 1.37933 17 1.0846 17ZM15.9154 0.584578C15.7857 0.584578 15.6678 0.631817 15.5735 0.726294L0.754508 15.5828C0.660194 15.6773 0.613037 15.7954 0.613037 15.9135C0.613037 16.0316 0.660194 16.1615 0.754508 16.256C0.931345 16.4331 1.24965 16.4331 1.42649 16.256L16.2573 1.39944C16.3516 1.30497 16.3988 1.18687 16.3988 1.05696C16.3988 0.927058 16.3516 0.808961 16.2573 0.726294C16.163 0.631817 16.0451 0.584578 15.9272 0.584578H15.9154Z" fill="#070707"/>
<path d="M0.318308 16.6811L-0.389412 17.3876L0.318308 16.6811ZM0.318308 15.1577L1.00556 15.8841L1.01579 15.8744L1.02575 15.8645L0.318308 15.1577ZM15.1609 0.301146L15.8683 1.00792L15.8686 1.00764L15.1609 0.301146ZM16.6817 1.82459L15.974 1.1181L16.6817 1.82459ZM1.8509 16.6811L2.55862 17.3876L1.8509 16.6811ZM15.5735 0.726294L14.8658 0.0198007L14.8655 0.0200823L15.5735 0.726294ZM0.754508 15.5828L1.46223 16.2893L1.46251 16.2891L0.754508 15.5828ZM0.754508 16.256L1.46223 15.5495L0.754508 16.256ZM1.42649 16.256L2.13421 16.9625L1.42649 16.256ZM16.2573 1.39944L15.5496 0.692951L16.2573 1.39944ZM16.2573 0.726294L15.5496 1.43279L15.5731 1.45635L15.5981 1.4783L16.2573 0.726294ZM1.0846 16C1.06914 16 1.05978 15.9973 1.05413 15.995C1.04892 15.9928 1.03941 15.9881 1.02603 15.9746L-0.389412 17.3876C0.0146454 17.7924 0.542247 18 1.0846 18V16ZM1.02603 15.9746C1.01599 15.9646 1.0098 15.9546 1.00607 15.9457C1.00251 15.9373 1 15.927 1 15.9135H-1C-1 16.481 -0.771728 17.0047 -0.389412 17.3876L1.02603 15.9746ZM1 15.9135C1 15.8997 1.00123 15.8914 1.00192 15.8878C1.0026 15.8843 1.00299 15.884 1.00226 15.8857C1.0015 15.8875 1.00055 15.8892 0.999987 15.89C0.999462 15.8907 1.00074 15.8887 1.00556 15.8841L-0.368945 14.4313C-0.791958 14.8315 -1 15.3592 -1 15.9135H1ZM1.02575 15.8645L15.8683 1.00792L14.4534 -0.405628L-0.389131 14.4509L1.02575 15.8645ZM15.8686 1.00764C15.8626 1.0137 15.8615 1.01202 15.8713 1.00822C15.8819 1.00412 15.8994 1 15.9213 1C15.9432 1 15.9607 1.00412 15.9713 1.00822C15.9811 1.01202 15.98 1.0137 15.974 1.00764L17.3894 -0.405347C16.5979 -1.19822 15.2447 -1.19822 14.4532 -0.405347L15.8686 1.00764ZM15.974 1.00764C15.9967 1.03044 16 1.05161 16 1.05696H18C18 0.495454 17.7675 -0.0266219 17.3894 -0.405347L15.974 1.00764ZM16 1.05696C16 1.07314 15.9972 1.08313 15.9946 1.08928C15.9923 1.09497 15.9874 1.10469 15.974 1.1181L17.3894 2.53108C17.7934 2.1264 18 1.59871 18 1.05696H16ZM15.974 1.1181L1.14318 15.9746L2.55862 17.3876L17.3894 2.53108L15.974 1.1181ZM1.14318 15.9746C1.13315 15.9847 1.12338 15.9907 1.11496 15.9943C1.10696 15.9976 1.09737 16 1.0846 16V18C1.65274 18 2.17627 17.7706 2.55862 17.3876L1.14318 15.9746ZM15.9154 -0.415422C15.5248 -0.415422 15.1509 -0.265851 14.8658 0.0198008L16.2812 1.43279C16.2386 1.47553 16.1813 1.51617 16.1113 1.54494C16.0416 1.5736 15.9736 1.58458 15.9154 1.58458V-0.415422ZM14.8655 0.0200823L0.0465067 14.8766L1.46251 16.2891L16.2815 1.43251L14.8655 0.0200823ZM0.0467876 14.8763C-0.228901 15.1525 -0.386963 15.5224 -0.386963 15.9135H1.61304C1.61304 16.0684 1.54929 16.2021 1.46223 16.2893L0.0467876 14.8763ZM-0.386963 15.9135C-0.386963 16.2784 -0.247095 16.6681 0.0467876 16.9625L1.46223 15.5495C1.56748 15.6549 1.61304 15.7848 1.61304 15.9135H-0.386963ZM0.0467876 16.9625C0.614289 17.531 1.56671 17.531 2.13421 16.9625L0.718771 15.5495C0.843023 15.425 0.986516 15.3888 1.0905 15.3888C1.19448 15.3888 1.33798 15.425 1.46223 15.5495L0.0467876 16.9625ZM2.13421 16.9625L16.965 2.10594L15.5496 0.692951L0.718771 15.5495L2.13421 16.9625ZM16.965 2.10594C17.2501 1.82036 17.3988 1.44663 17.3988 1.05696H15.3988C15.3988 0.999311 15.4096 0.931847 15.438 0.862497C15.4665 0.792833 15.5069 0.735703 15.5496 0.692951L16.965 2.10594ZM17.3988 1.05696C17.3988 0.680704 17.2569 0.272693 16.9164 -0.0257163L15.5981 1.4783C15.4463 1.34523 15.3988 1.17341 15.3988 1.05696H17.3988ZM16.965 0.0198008C16.6893 -0.256403 16.3192 -0.415422 15.9272 -0.415422V1.58458C15.7709 1.58458 15.6367 1.52004 15.5496 1.43279L16.965 0.0198008ZM15.9272 -0.415422H15.9154V1.58458H15.9272V-0.415422Z" fill="black" mask="url(#path-4-inside-1_35_675)"/>
<path d="M15.93 8.5C15.93 12.6918 12.5318 16.09 8.34 16.09C4.14816 16.09 0.75 12.6918 0.75 8.5C0.75 4.30816 4.14816 0.910004 8.34 0.910004C12.5318 0.910004 15.93 4.30816 15.93 8.5Z" fill="white" stroke="black"/>
<mask id="path-7-inside-2_35_675" fill="white">
<path d="M8.34 16.84C3.74 16.84 0 13.1 0 8.5C0 3.9 3.74 0.160004 8.34 0.160004C12.94 0.160004 16.68 3.9 16.68 8.5C16.68 13.1 12.94 16.84 8.34 16.84ZM8.34 0.670004C4.02 0.670004 0.51 4.18 0.51 8.5C0.51 12.82 4.02 16.33 8.34 16.33C12.66 16.33 16.17 12.82 16.17 8.5C16.17 4.18 12.66 0.670004 8.34 0.670004Z"/>
</mask>
<path d="M8.34 16.84C3.74 16.84 0 13.1 0 8.5C0 3.9 3.74 0.160004 8.34 0.160004C12.94 0.160004 16.68 3.9 16.68 8.5C16.68 13.1 12.94 16.84 8.34 16.84ZM8.34 0.670004C4.02 0.670004 0.51 4.18 0.51 8.5C0.51 12.82 4.02 16.33 8.34 16.33C12.66 16.33 16.17 12.82 16.17 8.5C16.17 4.18 12.66 0.670004 8.34 0.670004Z" fill="#070707"/>
<path d="M8.34 15.84C4.29228 15.84 1 12.5477 1 8.5H-1C-1 13.6523 3.18772 17.84 8.34 17.84V15.84ZM1 8.5C1 4.45229 4.29228 1.16 8.34 1.16V-0.839996C3.18772 -0.839996 -1 3.34772 -1 8.5H1ZM8.34 1.16C12.3877 1.16 15.68 4.45229 15.68 8.5H17.68C17.68 3.34772 13.4923 -0.839996 8.34 -0.839996V1.16ZM15.68 8.5C15.68 12.5477 12.3877 15.84 8.34 15.84V17.84C13.4923 17.84 17.68 13.6523 17.68 8.5H15.68ZM8.34 -0.329996C3.46772 -0.329996 -0.49 3.62772 -0.49 8.5H1.51C1.51 4.73229 4.57228 1.67 8.34 1.67V-0.329996ZM-0.49 8.5C-0.49 13.3723 3.46772 17.33 8.34 17.33V15.33C4.57228 15.33 1.51 12.2677 1.51 8.5H-0.49ZM8.34 17.33C13.2123 17.33 17.17 13.3723 17.17 8.5H15.17C15.17 12.2677 12.1077 15.33 8.34 15.33V17.33ZM17.17 8.5C17.17 3.62772 13.2123 -0.329996 8.34 -0.329996V1.67C12.1077 1.67 15.17 4.73229 15.17 8.5H17.17Z" fill="#2C3832" mask="url(#path-7-inside-2_35_675)"/>
</svg>
